<svg width="300" height="300" viewBox="0 0 300 300" fill="none" xmlns="http://www.w3.org/2000/svg">
<rect width="300" height="300" rx="30" fill="#04E6A2"/>
<path fill-rule="evenodd" clip-rule="evenodd" d="M236.889 40.0072C237.448 40.0094 238.006 40.0058 238.565 40.0024C241.624 40.0312 241.624 40.031 242.953 41.2699C244.754 43.5648 243.756 47.7125 243.428 50.4613C243.137 52.6921 242.699 54.8955 242.245 57.0981C242.134 57.6426 242.033 58.1891 241.934 58.7358C239.893 69.473 234.879 80.1717 228.131 88.7318C227.919 89.0025 227.707 89.2733 227.489 89.5522C224.133 93.7334 220.378 97.7595 216.106 101.016C215.913 101.164 215.72 101.311 215.521 101.463C212.651 103.646 209.755 105.692 206.597 107.438C206.406 107.544 206.215 107.65 206.018 107.759C203.383 109.212 200.724 110.507 197.928 111.625C197.481 111.805 197.48 111.805 197.024 111.989C193.366 113.425 189.702 114.586 185.868 115.447C185.35 115.57 185.349 115.57 184.821 115.696C178.891 117.04 172.875 117.042 166.825 117.048C165.699 117.05 164.573 117.061 163.447 117.074C162.571 117.082 161.695 117.084 160.82 117.084C160.404 117.086 159.988 117.088 159.573 117.094C158.995 117.102 158.418 117.101 157.841 117.097C157.351 117.099 157.35 117.1 156.85 117.102C155.718 116.879 155.302 116.411 154.58 115.534C153.717 113.161 154.712 110.721 155.716 108.572C157.452 105.175 159.839 103.15 163.249 101.575C164.557 101.227 165.883 101.221 167.228 101.175C167.747 101.155 168.267 101.135 168.787 101.114C169.595 101.082 170.403 101.052 171.211 101.024C175.88 100.858 180.486 100.482 184.976 99.1147C185.22 99.0425 185.463 98.9703 185.714 98.8959C189.607 97.7204 193.212 96.2062 196.809 94.3158C197.088 94.1719 197.368 94.0276 197.656 93.8793C203.158 90.9793 208.525 86.8671 212.47 82.0317C212.719 81.7375 212.967 81.4429 213.216 81.1488C218.912 74.3269 222.985 66.1718 224.949 57.4945C225.022 57.1734 225.094 56.8518 225.169 56.5209C225.224 56.2791 225.278 56.0367 225.334 55.7875C222.701 55.8113 220.067 55.8387 217.434 55.8686C216.211 55.8824 214.987 55.8949 213.764 55.9057C205.702 55.9776 197.859 56.1139 190.097 58.5795C189.917 58.6366 189.736 58.6945 189.55 58.7533C181.077 61.4767 173.855 66.1556 167.445 72.2602C167.207 72.4832 166.968 72.7062 166.723 72.9359C160.969 78.4724 156.956 85.4993 154.227 92.9262C154.091 93.292 153.951 93.6567 153.808 94.0199C153.249 95.45 152.842 96.8895 152.483 98.3813C152.427 98.597 152.371 98.8133 152.314 99.0356C150.809 105.251 150.731 111.615 150.682 117.973C150.673 119.005 150.653 120.038 150.624 121.07C150.589 122.335 150.571 123.6 150.567 124.866C150.562 125.342 150.552 125.818 150.535 126.293C150.393 128.823 150.394 128.823 151.303 131.107C152.279 132.135 153.403 132.9 154.58 133.681C154.941 133.988 155.298 134.3 155.642 134.625C155.781 134.754 155.921 134.882 156.065 135.014C156.264 135.201 156.264 135.201 156.468 135.391C156.693 135.6 156.692 135.6 156.921 135.813C157.354 136.217 157.786 136.624 158.216 137.032C158.562 137.359 158.562 137.36 158.915 137.694C160.752 139.48 162.692 141.405 163.809 143.732C164.119 143.731 164.428 143.729 164.747 143.728C172.281 143.697 179.816 143.674 187.35 143.66C190.993 143.652 194.637 143.642 198.281 143.626C201.456 143.612 204.631 143.603 207.806 143.6C209.488 143.598 211.169 143.595 212.851 143.584C214.433 143.575 216.017 143.572 217.599 143.574C218.18 143.573 218.761 143.571 219.342 143.566C220.135 143.559 220.928 143.56 221.721 143.564C221.951 143.56 222.181 143.555 222.418 143.551C223.57 143.566 224.282 143.671 225.193 144.406C226.392 145.642 226.269 146.626 226.248 148.298C225.983 151.874 224.316 154.64 221.769 157.098C219.046 159.244 216.19 159.568 212.838 159.525C212.408 159.524 211.978 159.525 211.547 159.526C210.39 159.526 209.232 159.518 208.075 159.508C206.861 159.499 205.647 159.498 204.433 159.496C202.139 159.492 199.846 159.481 197.552 159.467C194.939 159.452 192.325 159.444 189.711 159.437C184.34 159.422 178.968 159.398 173.597 159.367C173.674 159.517 173.751 159.668 173.829 159.823C173.93 160.022 174.031 160.221 174.134 160.426C174.234 160.623 174.333 160.82 174.436 161.023C175.124 162.443 175.582 163.962 176.079 165.456C176.14 165.639 176.201 165.822 176.264 166.01C177.516 169.789 178.474 173.596 179.191 177.513C179.265 177.904 179.265 177.904 179.34 178.302C180.054 182.232 180.107 186.166 180.117 190.147C180.118 190.515 180.118 190.515 180.12 190.89C180.13 195.806 179.772 200.635 178.736 205.45C178.664 205.787 178.593 206.125 178.519 206.473C177.986 208.909 177.357 211.31 176.656 213.703C176.567 214.005 176.479 214.308 176.388 214.62C175.793 216.572 175.03 218.386 174.157 220.229C173.979 220.632 173.803 221.037 173.629 221.442C170.174 229.435 165.567 236.261 159.894 242.843C159.735 243.034 159.576 243.224 159.412 243.42C156.693 246.635 153.634 249.467 150.273 251.993C149.586 252.52 148.931 253.084 148.271 253.644C146.905 254.77 145.453 255.684 143.935 256.585C143.288 256.977 142.686 257.377 142.083 257.831C140.206 259.189 138.508 260.034 136.159 260.004C135.421 259.842 135.185 259.626 134.724 259.036C134.14 258.09 134.095 257.35 134.096 256.247C134.095 255.903 134.094 255.558 134.093 255.203C134.095 254.82 134.096 254.437 134.098 254.054C134.098 253.648 134.097 253.242 134.096 252.835C134.095 251.717 134.097 250.599 134.1 249.481C134.102 248.276 134.101 247.071 134.101 245.866C134.101 243.777 134.103 241.689 134.106 239.601C134.11 236.582 134.112 233.563 134.113 230.543C134.114 225.645 134.117 220.746 134.122 215.848C134.128 211.089 134.132 206.33 134.134 201.571C134.134 201.278 134.135 200.985 134.135 200.683C134.136 199.212 134.136 197.74 134.137 196.269C134.143 184.061 134.153 171.854 134.165 159.646C133.901 159.647 133.9 159.647 133.63 159.648C129.311 159.666 124.992 159.68 120.672 159.689C118.583 159.693 116.494 159.699 114.405 159.708C112.581 159.717 110.757 159.722 108.934 159.724C107.971 159.725 107.008 159.728 106.045 159.734C100.577 159.765 95.3598 159.518 90.0834 157.988C89.8388 157.921 89.5942 157.854 89.3422 157.786C86.2052 156.906 83.3541 155.55 80.4701 154.062C80.0712 153.859 80.0713 153.859 79.6644 153.652C68.9811 148.055 61.2542 138.202 57.6273 126.807C56.8864 124.401 56.2811 121.962 56.14 119.443C56.1155 119.107 56.0911 118.772 56.0658 118.426C55.9276 115.228 55.9279 115.228 56.8744 114.051C57.8416 113.078 59.0597 112.777 60.4027 112.671C60.897 112.67 60.8975 112.67 61.4017 112.669C61.5866 112.668 61.7718 112.668 61.9623 112.666C62.5782 112.664 63.194 112.664 63.8099 112.665C64.2535 112.664 64.6974 112.663 65.141 112.662C66.3454 112.658 67.5498 112.657 68.7543 112.658C69.7662 112.658 70.7785 112.657 71.7904 112.656C74.187 112.653 76.5842 112.652 78.9808 112.654C81.4307 112.655 83.8806 112.652 86.3305 112.646C88.4477 112.641 90.5657 112.64 92.683 112.641C93.9408 112.642 95.1986 112.64 96.4564 112.636C104.448 112.613 112.348 112.78 120.128 114.816C120.97 115.035 121.818 115.23 122.664 115.429C123.73 115.701 124.75 116.022 125.771 116.428C126.402 116.677 127.04 116.898 127.68 117.121C129.201 117.671 130.687 118.294 132.176 118.924C132.422 119.028 132.667 119.132 132.92 119.239C133.522 119.492 134.123 119.747 134.724 120.001C134.723 119.846 134.724 119.689 134.723 119.529C134.717 117.889 134.712 116.249 134.709 114.61C134.708 114 134.706 113.39 134.703 112.781C134.686 108.376 134.743 104.079 135.494 99.725C135.543 99.4373 135.593 99.1494 135.644 98.8529C136.861 91.9909 138.938 85.3792 142.275 79.2397C142.435 78.9294 142.596 78.6189 142.761 78.2992C145.777 72.5272 149.648 67.2874 154.188 62.6283C154.728 62.0521 155.206 61.4292 155.699 60.8129C156.022 60.5063 156.355 60.2094 156.696 59.9233C157.338 59.3781 157.967 58.8298 158.578 58.2504C163.172 53.907 168.543 50.516 174.121 47.5873C174.387 47.4477 174.653 47.3074 174.927 47.1635C176.595 46.3037 178.279 45.5724 180.03 44.8998C180.494 44.7083 180.958 44.5162 181.422 44.3246C182.827 43.7641 184.254 43.3329 185.71 42.9281C185.947 42.8603 186.184 42.7919 186.428 42.7221C194.06 40.5705 201.58 39.9764 209.456 40.0033C210.574 40.0062 211.692 40.0041 212.809 40.0024C214.676 40.0003 216.542 40.0028 218.409 40.0082C220.562 40.0143 222.716 40.0124 224.87 40.0063C226.734 40.0012 228.598 40.0004 230.462 40.0033C231.569 40.0051 232.676 40.0051 233.784 40.0014C234.819 39.9982 235.854 40.0008 236.889 40.0072ZM119.609 131.241C111.929 128.441 111.929 128.441 93.0092 128.572C91.2108 128.585 89.412 128.592 87.6137 128.598C83.7428 128.61 79.8721 128.63 76.0014 128.656V129.214H76.5609V129.773C79.8965 135.183 85.4445 139.411 91.3197 141.736C91.5431 141.821 91.7601 141.905 91.9769 141.988C96.9679 143.952 102.104 144.17 107.407 144.147C108.367 144.142 109.327 144.143 110.287 144.146C112.733 144.154 115.178 144.154 117.623 144.152C120.296 144.149 122.968 144.146 125.64 144.154C126.61 144.157 127.58 144.161 128.549 144.158C129.467 144.153 130.386 144.151 131.304 144.153C131.652 144.154 131.99 144.155 132.328 144.156C135.106 144.128 137.597 144.438 139.942 146.048C140.232 146.281 140.514 146.508 140.795 146.734C141.983 147.687 143.141 148.661 144.19 149.767C144.396 149.993 144.597 150.213 144.797 150.433C145.265 150.93 145.732 151.427 146.193 151.931C146.36 152.116 146.522 152.295 146.685 152.474C148.722 154.64 149.666 156.998 149.703 159.981C149.701 160.261 149.699 160.534 149.697 160.806C149.703 161.755 149.708 162.704 149.706 163.653C149.705 164.346 149.706 165.04 149.708 165.733C149.716 167.427 149.722 169.121 149.722 170.815C149.722 173.021 149.725 175.228 149.732 177.434C149.743 181.012 149.752 184.59 149.755 188.167C149.759 191.652 149.763 195.138 149.772 198.622C149.772 198.844 149.773 199.06 149.774 199.276C149.777 200.358 149.779 201.44 149.782 202.522C149.805 211.528 149.82 220.534 149.83 229.54C149.831 229.697 149.831 229.849 149.831 230H150.111C159.675 219.433 164.068 204.096 164.161 190.178C164.162 189.972 164.163 189.771 164.164 189.571C164.197 185.587 163.859 181.763 162.975 177.867C162.904 177.569 162.835 177.28 162.766 176.991C160.651 168.038 156.854 159.612 150.942 152.492C150.755 152.266 150.573 152.047 150.391 151.829C144.444 144.102 136.078 138.399 127.376 134.191C127.136 134.075 127.136 134.074 126.9 133.96C125.105 133.084 123.256 132.434 121.354 131.827C120.769 131.64 120.187 131.448 119.609 131.241ZM220.168 146.093C217.856 146.093 215.981 147.968 215.981 150.281C215.981 152.593 217.856 154.468 220.168 154.468C222.481 154.468 224.357 152.593 224.357 150.281C224.357 147.968 222.481 146.093 220.168 146.093Z" fill="white"/>
<path d="M220.164 136.316C227.873 136.316 234.123 142.566 234.123 150.275C234.123 157.985 227.874 164.235 220.164 164.235C212.455 164.235 206.205 157.985 206.205 150.275C206.205 142.566 212.455 136.316 220.164 136.316ZM220.164 146.092C217.851 146.092 215.977 147.967 215.977 150.279C215.977 152.592 217.851 154.467 220.164 154.467C222.477 154.467 224.352 152.592 224.352 150.279C224.351 147.967 222.477 146.092 220.164 146.092Z" fill="white"/>
</svg>
